<mxfile host="app.diagrams.net" modified="2024-07-23T17:48:06.358Z" agent="Mozilla/5.0 (Macintosh; Intel Mac OS X 10_15_7) AppleWebKit/537.36 (KHTML, like Gecko) Chrome/123.0.0.0 Safari/537.36 OPR/109.0.0.0" etag="nOKDSXJdxx-5FVWp6sgu" version="24.4.9" type="github">
  <diagram name="Page-1" id="kRObSTqy80vmGRSShodc">
    <mxGraphModel dx="841" dy="1153" grid="1" gridSize="10" guides="1" tooltips="1" connect="1" arrows="1" fold="1" page="1" pageScale="1" pageWidth="4681" pageHeight="3300" math="0" shadow="0">
      <root>
        <mxCell id="0" />
        <mxCell id="1" parent="0" />
        <mxCell id="cKjj-A-NcpuzPKMLpBl_-1" value="&lt;font style=&quot;font-size: 36px;&quot;&gt;&lt;b&gt;Ø&lt;/b&gt;&lt;/font&gt;" style="whiteSpace=wrap;html=1;aspect=fixed;" vertex="1" parent="1">
          <mxGeometry x="990" y="50" width="60" height="60" as="geometry" />
        </mxCell>
        <mxCell id="cKjj-A-NcpuzPKMLpBl_-2" value="&lt;font style=&quot;font-size: 36px;&quot;&gt;&lt;b&gt;?&lt;/b&gt;&lt;/font&gt;" style="whiteSpace=wrap;html=1;aspect=fixed;" vertex="1" parent="1">
          <mxGeometry x="990" y="170" width="60" height="60" as="geometry" />
        </mxCell>
        <mxCell id="cKjj-A-NcpuzPKMLpBl_-3" value="&lt;font style=&quot;font-size: 36px;&quot;&gt;&lt;b&gt;→&lt;/b&gt;&lt;/font&gt;" style="whiteSpace=wrap;html=1;aspect=fixed;" vertex="1" parent="1">
          <mxGeometry x="430" y="690" width="60" height="60" as="geometry" />
        </mxCell>
        <mxCell id="cKjj-A-NcpuzPKMLpBl_-4" value="" style="endArrow=classic;html=1;rounded=0;exitX=0.5;exitY=1;exitDx=0;exitDy=0;" edge="1" parent="1" source="cKjj-A-NcpuzPKMLpBl_-1">
          <mxGeometry width="50" height="50" relative="1" as="geometry">
            <mxPoint x="1020" y="80" as="sourcePoint" />
            <mxPoint x="1020" y="170" as="targetPoint" />
          </mxGeometry>
        </mxCell>
        <mxCell id="cKjj-A-NcpuzPKMLpBl_-5" value="" style="endArrow=classic;html=1;rounded=0;" edge="1" parent="1">
          <mxGeometry width="50" height="50" relative="1" as="geometry">
            <mxPoint x="1020" y="230" as="sourcePoint" />
            <mxPoint x="1020" y="290" as="targetPoint" />
          </mxGeometry>
        </mxCell>
        <mxCell id="cKjj-A-NcpuzPKMLpBl_-6" value="BTS_GetHealth" style="rounded=0;whiteSpace=wrap;html=1;" vertex="1" parent="1">
          <mxGeometry x="960" y="290" width="120" height="60" as="geometry" />
        </mxCell>
        <mxCell id="cKjj-A-NcpuzPKMLpBl_-7" value="BTS_GetHealth" style="rounded=0;whiteSpace=wrap;html=1;" vertex="1" parent="1">
          <mxGeometry x="800" y="290" width="120" height="60" as="geometry" />
        </mxCell>
        <mxCell id="cKjj-A-NcpuzPKMLpBl_-8" value="BTS_GetHealth" style="rounded=0;whiteSpace=wrap;html=1;" vertex="1" parent="1">
          <mxGeometry x="1120" y="290" width="120" height="60" as="geometry" />
        </mxCell>
        <mxCell id="cKjj-A-NcpuzPKMLpBl_-9" value="" style="endArrow=classic;html=1;rounded=0;entryX=0.5;entryY=0;entryDx=0;entryDy=0;" edge="1" parent="1" target="cKjj-A-NcpuzPKMLpBl_-8">
          <mxGeometry width="50" height="50" relative="1" as="geometry">
            <mxPoint x="1019.5" y="230" as="sourcePoint" />
            <mxPoint x="1019.5" y="290" as="targetPoint" />
          </mxGeometry>
        </mxCell>
        <mxCell id="cKjj-A-NcpuzPKMLpBl_-10" value="" style="endArrow=classic;html=1;rounded=0;entryX=0.5;entryY=0;entryDx=0;entryDy=0;" edge="1" parent="1" target="cKjj-A-NcpuzPKMLpBl_-7">
          <mxGeometry width="50" height="50" relative="1" as="geometry">
            <mxPoint x="1019.5" y="230" as="sourcePoint" />
            <mxPoint x="1019.5" y="290" as="targetPoint" />
          </mxGeometry>
        </mxCell>
        <mxCell id="cKjj-A-NcpuzPKMLpBl_-11" value="Run EQS Best Position" style="rounded=0;whiteSpace=wrap;html=1;" vertex="1" parent="1">
          <mxGeometry x="320" y="810" width="120" height="60" as="geometry" />
        </mxCell>
        <mxCell id="cKjj-A-NcpuzPKMLpBl_-12" value="Move To" style="rounded=0;whiteSpace=wrap;html=1;" vertex="1" parent="1">
          <mxGeometry x="480" y="810" width="120" height="60" as="geometry" />
        </mxCell>
        <mxCell id="cKjj-A-NcpuzPKMLpBl_-13" value="" style="endArrow=classic;html=1;rounded=0;entryX=0.5;entryY=0;entryDx=0;entryDy=0;exitX=0.5;exitY=1;exitDx=0;exitDy=0;" edge="1" parent="1" source="cKjj-A-NcpuzPKMLpBl_-3" target="cKjj-A-NcpuzPKMLpBl_-12">
          <mxGeometry width="50" height="50" relative="1" as="geometry">
            <mxPoint x="440" y="750" as="sourcePoint" />
            <mxPoint x="490" y="700" as="targetPoint" />
          </mxGeometry>
        </mxCell>
        <mxCell id="cKjj-A-NcpuzPKMLpBl_-14" value="" style="endArrow=classic;html=1;rounded=0;entryX=0.5;entryY=0;entryDx=0;entryDy=0;exitX=0.5;exitY=1;exitDx=0;exitDy=0;" edge="1" parent="1" source="cKjj-A-NcpuzPKMLpBl_-3" target="cKjj-A-NcpuzPKMLpBl_-11">
          <mxGeometry width="50" height="50" relative="1" as="geometry">
            <mxPoint x="440" y="750" as="sourcePoint" />
            <mxPoint x="530" y="810" as="targetPoint" />
          </mxGeometry>
        </mxCell>
        <mxCell id="cKjj-A-NcpuzPKMLpBl_-15" value="&lt;font style=&quot;font-size: 36px;&quot;&gt;&lt;b&gt;→&lt;/b&gt;&lt;/font&gt;" style="whiteSpace=wrap;html=1;aspect=fixed;" vertex="1" parent="1">
          <mxGeometry x="810" y="690" width="60" height="60" as="geometry" />
        </mxCell>
        <mxCell id="cKjj-A-NcpuzPKMLpBl_-16" value="Run EQS Find Cover" style="rounded=0;whiteSpace=wrap;html=1;" vertex="1" parent="1">
          <mxGeometry x="640" y="810" width="120" height="60" as="geometry" />
        </mxCell>
        <mxCell id="cKjj-A-NcpuzPKMLpBl_-17" value="Move To" style="rounded=0;whiteSpace=wrap;html=1;" vertex="1" parent="1">
          <mxGeometry x="800" y="810" width="120" height="60" as="geometry" />
        </mxCell>
        <mxCell id="cKjj-A-NcpuzPKMLpBl_-18" value="" style="endArrow=classic;html=1;rounded=0;entryX=0.5;entryY=0;entryDx=0;entryDy=0;" edge="1" parent="1" target="cKjj-A-NcpuzPKMLpBl_-17">
          <mxGeometry width="50" height="50" relative="1" as="geometry">
            <mxPoint x="840" y="750" as="sourcePoint" />
            <mxPoint x="890" y="700" as="targetPoint" />
          </mxGeometry>
        </mxCell>
        <mxCell id="cKjj-A-NcpuzPKMLpBl_-19" value="" style="endArrow=classic;html=1;rounded=0;entryX=0.5;entryY=0;entryDx=0;entryDy=0;" edge="1" parent="1" target="cKjj-A-NcpuzPKMLpBl_-16">
          <mxGeometry width="50" height="50" relative="1" as="geometry">
            <mxPoint x="840" y="750" as="sourcePoint" />
            <mxPoint x="930" y="810" as="targetPoint" />
          </mxGeometry>
        </mxCell>
        <mxCell id="cKjj-A-NcpuzPKMLpBl_-20" value="&lt;font style=&quot;font-size: 36px;&quot;&gt;&lt;b&gt;?&lt;/b&gt;&lt;/font&gt;" style="whiteSpace=wrap;html=1;aspect=fixed;" vertex="1" parent="1">
          <mxGeometry x="960" y="810" width="60" height="60" as="geometry" />
        </mxCell>
        <mxCell id="cKjj-A-NcpuzPKMLpBl_-21" value="" style="endArrow=classic;html=1;rounded=0;entryX=0.5;entryY=0;entryDx=0;entryDy=0;" edge="1" parent="1" target="cKjj-A-NcpuzPKMLpBl_-20">
          <mxGeometry width="50" height="50" relative="1" as="geometry">
            <mxPoint x="840" y="750" as="sourcePoint" />
            <mxPoint x="870" y="810" as="targetPoint" />
          </mxGeometry>
        </mxCell>
        <mxCell id="cKjj-A-NcpuzPKMLpBl_-22" value="BTT Find Nearest health pack" style="rounded=0;whiteSpace=wrap;html=1;" vertex="1" parent="1">
          <mxGeometry x="850" y="930" width="120" height="60" as="geometry" />
        </mxCell>
        <mxCell id="cKjj-A-NcpuzPKMLpBl_-23" value="Move To" style="rounded=0;whiteSpace=wrap;html=1;" vertex="1" parent="1">
          <mxGeometry x="1010" y="930" width="120" height="60" as="geometry" />
        </mxCell>
        <mxCell id="cKjj-A-NcpuzPKMLpBl_-24" value="" style="endArrow=classic;html=1;rounded=0;entryX=0.5;entryY=0;entryDx=0;entryDy=0;" edge="1" parent="1" target="cKjj-A-NcpuzPKMLpBl_-23">
          <mxGeometry width="50" height="50" relative="1" as="geometry">
            <mxPoint x="990" y="870" as="sourcePoint" />
            <mxPoint x="1040" y="820" as="targetPoint" />
          </mxGeometry>
        </mxCell>
        <mxCell id="cKjj-A-NcpuzPKMLpBl_-25" value="" style="endArrow=classic;html=1;rounded=0;entryX=0.5;entryY=0;entryDx=0;entryDy=0;" edge="1" parent="1" target="cKjj-A-NcpuzPKMLpBl_-22">
          <mxGeometry width="50" height="50" relative="1" as="geometry">
            <mxPoint x="990" y="870" as="sourcePoint" />
            <mxPoint x="1080" y="930" as="targetPoint" />
          </mxGeometry>
        </mxCell>
        <mxCell id="cKjj-A-NcpuzPKMLpBl_-26" value="&lt;font style=&quot;font-size: 36px;&quot;&gt;&lt;b&gt;→&lt;/b&gt;&lt;/font&gt;" style="whiteSpace=wrap;html=1;aspect=fixed;" vertex="1" parent="1">
          <mxGeometry x="1170" y="690" width="60" height="60" as="geometry" />
        </mxCell>
        <mxCell id="cKjj-A-NcpuzPKMLpBl_-27" value="BTT Find Nearest Health Pack" style="rounded=0;whiteSpace=wrap;html=1;" vertex="1" parent="1">
          <mxGeometry x="1060" y="810" width="120" height="60" as="geometry" />
        </mxCell>
        <mxCell id="cKjj-A-NcpuzPKMLpBl_-28" value="Move To" style="rounded=0;whiteSpace=wrap;html=1;" vertex="1" parent="1">
          <mxGeometry x="1220" y="810" width="120" height="60" as="geometry" />
        </mxCell>
        <mxCell id="cKjj-A-NcpuzPKMLpBl_-29" value="" style="endArrow=classic;html=1;rounded=0;entryX=0.5;entryY=0;entryDx=0;entryDy=0;" edge="1" parent="1" target="cKjj-A-NcpuzPKMLpBl_-28">
          <mxGeometry width="50" height="50" relative="1" as="geometry">
            <mxPoint x="1200" y="750" as="sourcePoint" />
            <mxPoint x="1250" y="700" as="targetPoint" />
          </mxGeometry>
        </mxCell>
        <mxCell id="cKjj-A-NcpuzPKMLpBl_-30" value="" style="endArrow=classic;html=1;rounded=0;entryX=0.5;entryY=0;entryDx=0;entryDy=0;" edge="1" parent="1" target="cKjj-A-NcpuzPKMLpBl_-27">
          <mxGeometry width="50" height="50" relative="1" as="geometry">
            <mxPoint x="1200" y="750" as="sourcePoint" />
            <mxPoint x="1290" y="810" as="targetPoint" />
          </mxGeometry>
        </mxCell>
        <mxCell id="cKjj-A-NcpuzPKMLpBl_-31" value="&lt;font style=&quot;font-size: 36px;&quot;&gt;&lt;b&gt;→&lt;/b&gt;&lt;/font&gt;" style="whiteSpace=wrap;html=1;aspect=fixed;" vertex="1" parent="1">
          <mxGeometry x="1490" y="690" width="60" height="60" as="geometry" />
        </mxCell>
        <mxCell id="cKjj-A-NcpuzPKMLpBl_-32" value="BTT Find Nearest Ammo Pack" style="rounded=0;whiteSpace=wrap;html=1;" vertex="1" parent="1">
          <mxGeometry x="1380" y="810" width="120" height="60" as="geometry" />
        </mxCell>
        <mxCell id="cKjj-A-NcpuzPKMLpBl_-33" value="Move To" style="rounded=0;whiteSpace=wrap;html=1;" vertex="1" parent="1">
          <mxGeometry x="1540" y="810" width="120" height="60" as="geometry" />
        </mxCell>
        <mxCell id="cKjj-A-NcpuzPKMLpBl_-34" value="" style="endArrow=classic;html=1;rounded=0;entryX=0.5;entryY=0;entryDx=0;entryDy=0;" edge="1" parent="1" target="cKjj-A-NcpuzPKMLpBl_-33">
          <mxGeometry width="50" height="50" relative="1" as="geometry">
            <mxPoint x="1520" y="750" as="sourcePoint" />
            <mxPoint x="1570" y="700" as="targetPoint" />
          </mxGeometry>
        </mxCell>
        <mxCell id="cKjj-A-NcpuzPKMLpBl_-35" value="" style="endArrow=classic;html=1;rounded=0;entryX=0.5;entryY=0;entryDx=0;entryDy=0;" edge="1" parent="1" target="cKjj-A-NcpuzPKMLpBl_-32">
          <mxGeometry width="50" height="50" relative="1" as="geometry">
            <mxPoint x="1520" y="750" as="sourcePoint" />
            <mxPoint x="1610" y="810" as="targetPoint" />
          </mxGeometry>
        </mxCell>
        <mxCell id="cKjj-A-NcpuzPKMLpBl_-36" value="Get Enemy Distance" style="rounded=0;whiteSpace=wrap;html=1;" vertex="1" parent="1">
          <mxGeometry x="740" y="440" width="120" height="60" as="geometry" />
        </mxCell>
        <mxCell id="cKjj-A-NcpuzPKMLpBl_-37" value="Can See Enemy?" style="ellipse;whiteSpace=wrap;html=1;" vertex="1" parent="1">
          <mxGeometry x="320" y="430" width="120" height="80" as="geometry" />
        </mxCell>
        <mxCell id="cKjj-A-NcpuzPKMLpBl_-39" value="Check Ammo is greater then 0" style="ellipse;whiteSpace=wrap;html=1;" vertex="1" parent="1">
          <mxGeometry x="460" y="430" width="120" height="80" as="geometry" />
        </mxCell>
        <mxCell id="cKjj-A-NcpuzPKMLpBl_-40" value="Check Health is greater then 50" style="ellipse;whiteSpace=wrap;html=1;" vertex="1" parent="1">
          <mxGeometry x="600" y="430" width="120" height="80" as="geometry" />
        </mxCell>
        <mxCell id="cKjj-A-NcpuzPKMLpBl_-41" value="Shoot" style="rounded=0;whiteSpace=wrap;html=1;" vertex="1" parent="1">
          <mxGeometry x="880" y="440" width="120" height="60" as="geometry" />
        </mxCell>
        <mxCell id="cKjj-A-NcpuzPKMLpBl_-42" value="Set Focus" style="rounded=0;whiteSpace=wrap;html=1;" vertex="1" parent="1">
          <mxGeometry x="1020" y="440" width="120" height="60" as="geometry" />
        </mxCell>
        <mxCell id="cKjj-A-NcpuzPKMLpBl_-43" value="Set Focus" style="rounded=0;whiteSpace=wrap;html=1;" vertex="1" parent="1">
          <mxGeometry x="1460" y="440" width="120" height="60" as="geometry" />
        </mxCell>
        <mxCell id="cKjj-A-NcpuzPKMLpBl_-44" value="Check if Health pack nearby" style="ellipse;whiteSpace=wrap;html=1;" vertex="1" parent="1">
          <mxGeometry x="1180" y="430" width="120" height="80" as="geometry" />
        </mxCell>
        <mxCell id="cKjj-A-NcpuzPKMLpBl_-45" value="Check if Health is less then or equal to 50" style="ellipse;whiteSpace=wrap;html=1;" vertex="1" parent="1">
          <mxGeometry x="1320" y="430" width="120" height="80" as="geometry" />
        </mxCell>
        <mxCell id="cKjj-A-NcpuzPKMLpBl_-46" value="Set Focus" style="rounded=0;whiteSpace=wrap;html=1;" vertex="1" parent="1">
          <mxGeometry x="1900" y="440" width="120" height="60" as="geometry" />
        </mxCell>
        <mxCell id="cKjj-A-NcpuzPKMLpBl_-47" value="Check if Health pack nearby" style="ellipse;whiteSpace=wrap;html=1;" vertex="1" parent="1">
          <mxGeometry x="1620" y="430" width="120" height="80" as="geometry" />
        </mxCell>
        <mxCell id="cKjj-A-NcpuzPKMLpBl_-48" value="Check if Health is less then or equal to 50" style="ellipse;whiteSpace=wrap;html=1;" vertex="1" parent="1">
          <mxGeometry x="1760" y="430" width="120" height="80" as="geometry" />
        </mxCell>
      </root>
    </mxGraphModel>
  </diagram>
</mxfile>
